<svg width="218" height="87" viewBox="0 0 218 87" fill="none" xmlns="http://www.w3.org/2000/svg">
<path d="M5.12 39.08C4.90667 39.16 4.62667 39.2267 4.28 39.28C3.93333 39.3333 3.61333 39.36 3.32 39.36C2.78667 39.36 2.32 39.1867 1.92 38.84C1.52 38.4933 1.24 37.92 1.08 37.12C0.946667 36.32 0.973333 35.2667 1.16 33.96C1.4 32.4667 1.74667 30.9867 2.2 29.52C2.68 28.0533 3.21333 26.5733 3.8 25.08C4.38667 23.56 4.94667 22 5.48 20.4C6.04 18.7733 6.52 17.0933 6.92 15.36C7.10667 14.5867 7.24 13.8267 7.32 13.08C7.42667 12.3067 7.46667 11.6 7.44 10.96C7.73333 10.88 8.01333 10.8267 8.28 10.8C8.54667 10.7467 8.84 10.7067 9.16 10.68C9.50667 10.6533 9.90667 10.64 10.36 10.64C11.4267 10.64 12.28 10.8133 12.92 11.16C13.5867 11.48 14.0533 11.9467 14.32 12.56C14.6133 13.1467 14.76 13.8533 14.76 14.68C14.7067 15.5333 14.68 16.4267 14.68 17.36C14.7067 18.2667 14.7467 19.2 14.8 20.16C14.8533 21.12 14.9333 22.08 15.04 23.04C15.1733 23.9733 15.32 24.92 15.48 25.88C15.6667 26.84 15.8933 27.7733 16.16 28.68L14.88 27.36L17 27.64L15.28 28.48C16.0267 27.68 16.7733 26.76 17.52 25.72C18.2933 24.68 19.0533 23.56 19.8 22.36C20.5467 21.1333 21.2533 19.88 21.92 18.6C22.6133 17.2933 23.2533 16 23.84 14.72C24.4267 13.4133 24.9333 12.16 25.36 10.96C25.6533 10.88 25.9333 10.8267 26.2 10.8C26.4667 10.7467 26.72 10.7067 26.96 10.68C27.2267 10.6533 27.4933 10.64 27.76 10.64C28.6933 10.64 29.44 10.8 30 11.12C30.5867 11.44 30.9867 11.96 31.2 12.68C31.44 13.3733 31.4933 14.32 31.36 15.52C31.2267 16.6667 31.0667 17.8133 30.88 18.96C30.72 20.08 30.52 21.1867 30.28 22.28C30.0667 23.3733 29.84 24.4533 29.6 25.52C29.3867 26.5867 29.16 27.64 28.92 28.68C28.7067 29.6933 28.4933 30.6933 28.28 31.68C28.0933 32.6667 27.9333 33.64 27.8 34.6C27.72 35.16 27.6533 35.7067 27.6 36.24C27.5467 36.7467 27.5333 37.24 27.56 37.72C27.5867 38.2 27.64 38.6533 27.72 39.08C27.5067 39.16 27.2267 39.2267 26.88 39.28C26.5333 39.3333 26.1333 39.36 25.68 39.36C25.0667 39.36 24.5467 39.24 24.12 39C23.72 38.7333 23.4267 38.3333 23.24 37.8C23.0533 37.2667 23 36.5867 23.08 35.76C23.1333 35.12 23.2267 34.4667 23.36 33.8C23.4933 33.1333 23.6533 32.4 23.84 31.6C24.0533 30.8 24.2933 29.92 24.56 28.96C24.72 28.3733 24.88 27.76 25.04 27.12C25.2267 26.48 25.4 25.8267 25.56 25.16C25.72 24.4933 25.88 23.8133 26.04 23.12C26.2 22.4 26.3333 21.6667 26.44 20.92C26.5733 20.1467 26.68 19.3733 26.76 18.6C26.8667 17.8 26.96 16.9867 27.04 16.16L27.64 17.6L25.56 17.2L27.28 16.12C26.6667 17.5067 25.9733 18.92 25.2 20.36C24.4533 21.8 23.6667 23.2133 22.84 24.6C22.04 25.96 21.2267 27.2533 20.4 28.48C19.5733 29.7067 18.7733 30.8133 18 31.8C17.2267 32.7867 16.52 33.6133 15.88 34.28C15.72 34.3333 15.56 34.3733 15.4 34.4C15.2667 34.4267 15.12 34.44 14.96 34.44C14.4 34.44 13.96 34.28 13.64 33.96C13.32 33.64 13.0667 33.2 12.88 32.64C12.6133 31.9467 12.36 31.16 12.12 30.28C11.9067 29.3733 11.6933 28.4 11.48 27.36C11.2933 26.2933 11.1333 25.16 11 23.96C10.8933 22.76 10.8133 21.4933 10.76 20.16C10.7067 18.8 10.7067 17.3867 10.76 15.92L11.76 17.28L9.84 17.56L10.88 16C10.64 16.9333 10.3867 17.8533 10.12 18.76C9.85333 19.64 9.58667 20.52 9.32 21.4C9.05333 22.2533 8.77333 23.0933 8.48 23.92C8.21333 24.7467 7.94667 25.56 7.68 26.36C7.41333 27.16 7.16 27.96 6.92 28.76C6.68 29.5333 6.46667 30.3067 6.28 31.08C5.90667 32.5467 5.61333 33.9333 5.4 35.24C5.18667 36.5467 5.09333 37.8267 5.12 39.08ZM44.9828 17.2C45.8095 17.2 46.5295 17.3733 47.1428 17.72C47.7561 18.04 48.2895 18.48 48.7428 19.04C49.1961 19.5733 49.5695 20.1733 49.8628 20.84H50.7428L49.9428 24.08C49.4895 23.12 48.9028 22.4 48.1828 21.92C47.4628 21.4133 46.5561 21.16 45.4628 21.16C44.4761 21.16 43.5561 21.4533 42.7028 22.04C41.8761 22.6267 41.1295 23.5067 40.4628 24.68C39.8228 25.8267 39.2761 27.2533 38.8228 28.96L38.6228 29.64C38.4095 30.4933 38.2495 31.3067 38.1428 32.08C38.0361 32.8267 38.0095 33.5467 38.0628 34.24C38.3028 34.5067 38.5695 34.72 38.8628 34.88C39.1828 35.0133 39.5428 35.08 39.9428 35.08C40.9295 35.08 41.9028 34.8133 42.8628 34.28C43.8228 33.7467 44.8095 32.88 45.8228 31.68C46.8628 30.4533 47.9961 28.84 49.2228 26.84L47.4628 33.24H46.5028C45.8095 34.4133 45.0495 35.4667 44.2228 36.4C43.3961 37.3333 42.5295 38.08 41.6228 38.64C40.7161 39.1733 39.8228 39.44 38.9428 39.44C37.8761 39.44 36.9695 39.16 36.2228 38.6C35.5028 38.04 34.9428 37.3067 34.5428 36.4C34.1695 35.4667 33.9428 34.44 33.8628 33.32C33.8095 32.2 33.9161 31.08 34.1828 29.96L34.4228 29.08C34.9561 26.9733 35.5961 25.1733 36.3428 23.68C37.0895 22.16 37.9161 20.92 38.8228 19.96C39.7295 19 40.7028 18.3067 41.7428 17.88C42.7828 17.4267 43.8628 17.2 44.9828 17.2ZM50.3828 17.6C50.6228 17.52 50.8495 17.4667 51.0628 17.44C51.3028 17.3867 51.5695 17.36 51.8628 17.36C52.5295 17.36 53.0761 17.5333 53.5028 17.88C53.9295 18.2267 54.1828 18.8 54.2628 19.6C54.3695 20.3733 54.2761 21.44 53.9828 22.8C53.6895 24.24 53.3161 25.64 52.8628 27C52.4361 28.3333 52.0095 29.64 51.5828 30.92C51.1561 32.1733 50.8228 33.48 50.5828 34.84C50.7161 35 50.8628 35.1067 51.0228 35.16C51.1828 35.2133 51.3828 35.24 51.6228 35.24C52.0495 35.24 52.5161 35.0533 53.0228 34.68C53.5561 34.3067 54.0095 33.8267 54.3828 33.24H54.6228C54.6228 33.48 54.5961 33.7333 54.5428 34C54.4895 34.2667 54.4095 34.5733 54.3028 34.92C54.1695 35.56 53.9695 36.16 53.7028 36.72C53.4628 37.2533 53.1828 37.6933 52.8628 38.04C52.4361 38.4667 51.9828 38.7867 51.5028 39C51.0495 39.24 50.5028 39.36 49.8628 39.36C49.0895 39.36 48.4228 39.12 47.8628 38.64C47.3295 38.16 46.9428 37.4933 46.7028 36.64C46.4895 35.76 46.4895 34.7467 46.7028 33.6C46.9428 32.24 47.2495 30.9333 47.6228 29.68C48.0228 28.4 48.4361 27.1067 48.8628 25.8C49.2895 24.4667 49.6495 23.0267 49.9428 21.48C50.0495 20.9467 50.1295 20.4533 50.1828 20C50.2628 19.5467 50.3161 19.12 50.3428 18.72C50.3695 18.2933 50.3828 17.92 50.3828 17.6ZM63.7672 9C63.9805 8.92 64.1805 8.86667 64.3672 8.84C64.5539 8.78667 64.7405 8.76 64.9272 8.76C65.1405 8.73333 65.3405 8.72 65.5272 8.72C66.2205 8.72 66.8205 8.89333 67.3272 9.24C67.8339 9.56 68.1672 10.12 68.3272 10.92C68.4872 11.6933 68.4072 12.76 68.0872 14.12C67.7139 15.9067 67.2605 17.64 66.7272 19.32C66.2205 20.9733 65.6739 22.6 65.0872 24.2C64.5005 25.8 63.9405 27.4 63.4072 29C62.8739 30.5733 62.4205 32.2 62.0472 33.88C61.7005 35.5333 61.4872 37.2533 61.4072 39.04C61.3272 39.0667 61.2339 39.08 61.1272 39.08C61.0472 39.1067 60.9539 39.12 60.8472 39.12C60.7405 39.1467 60.6339 39.16 60.5272 39.16C59.7539 39.16 59.1139 38.96 58.6072 38.56C58.1272 38.16 57.7805 37.6267 57.5672 36.96C57.3805 36.2933 57.3672 35.5467 57.5272 34.72C57.9005 32.6933 58.3672 30.7867 58.9272 29C59.4872 27.2133 60.0872 25.4667 60.7272 23.76C61.3672 22.0533 61.9539 20.3067 62.4872 18.52C63.0472 16.7333 63.5005 14.8267 63.8472 12.8C63.9805 12.0267 64.0605 11.3333 64.0872 10.72C64.1139 10.08 64.0072 9.50667 63.7672 9ZM74.1272 17.24C74.9539 17.24 75.6472 17.4533 76.2072 17.88C76.7939 18.28 77.2472 18.8133 77.5672 19.48C77.9139 20.1467 78.1405 20.8667 78.2472 21.64C78.3539 22.3867 78.3272 23.1067 78.1672 23.8C77.9272 24.8933 77.6205 25.9467 77.2472 26.96C76.8739 27.9733 76.5005 29 76.1272 30.04C75.7805 31.0533 75.4739 32.12 75.2072 33.24C75.1539 33.5867 75.1005 33.9333 75.0472 34.28C75.0205 34.6 75.0072 34.8933 75.0072 35.16C75.1139 35.1867 75.2205 35.2133 75.3272 35.24C75.4339 35.2667 75.5405 35.28 75.6472 35.28C75.9405 35.28 76.2605 35.1867 76.6072 35C76.9539 34.8133 77.2872 34.56 77.6072 34.24C77.9272 33.92 78.1805 33.5867 78.3672 33.24H78.6072C78.6072 33.5067 78.5805 33.7867 78.5272 34.08C78.5005 34.3733 78.4205 34.7333 78.2872 35.16C78.1272 35.8 77.9272 36.3467 77.6872 36.8C77.4472 37.2533 77.1539 37.6667 76.8072 38.04C76.4339 38.44 76.0072 38.76 75.5272 39C75.0472 39.24 74.5005 39.36 73.8872 39.36C73.2205 39.36 72.5805 39.1067 71.9672 38.6C71.3805 38.0933 70.9405 37.4133 70.6472 36.56C70.3539 35.7067 70.3005 34.76 70.4872 33.72C70.6739 32.68 70.9539 31.64 71.3272 30.6C71.7272 29.56 72.1805 28.4667 72.6872 27.32C73.2205 26.1467 73.8072 24.8933 74.4472 23.56C74.3139 22.92 74.0739 22.4533 73.7272 22.16C73.3805 21.8667 72.9005 21.72 72.2872 21.72C71.3539 21.72 70.3272 22.12 69.2072 22.92C68.0872 23.72 66.9405 24.84 65.7672 26.28C64.5939 27.72 63.4605 29.3867 62.3672 31.28L64.3272 24.16H65.4072C66.1539 22.9067 67.0072 21.76 67.9672 20.72C68.9539 19.6533 69.9805 18.8133 71.0472 18.2C72.1139 17.56 73.1405 17.24 74.1272 17.24ZM92.9516 17.2C93.7782 17.2 94.4982 17.3733 95.1116 17.72C95.7249 18.04 96.2582 18.48 96.7116 19.04C97.1649 19.5733 97.5382 20.1733 97.8316 20.84H98.7116L97.9116 24.08C97.4582 23.12 96.8716 22.4 96.1516 21.92C95.4316 21.4133 94.5249 21.16 93.4316 21.16C92.4449 21.16 91.5249 21.4533 90.6716 22.04C89.8449 22.6267 89.0982 23.5067 88.4316 24.68C87.7916 25.8267 87.2449 27.2533 86.7916 28.96L86.5916 29.64C86.3782 30.4933 86.2182 31.3067 86.1116 32.08C86.0049 32.8267 85.9782 33.5467 86.0316 34.24C86.2716 34.5067 86.5382 34.72 86.8316 34.88C87.1516 35.0133 87.5116 35.08 87.9116 35.08C88.8982 35.08 89.8716 34.8133 90.8316 34.28C91.7916 33.7467 92.7782 32.88 93.7916 31.68C94.8316 30.4533 95.9649 28.84 97.1916 26.84L95.4316 33.24H94.4716C93.7782 34.4133 93.0182 35.4667 92.1916 36.4C91.3649 37.3333 90.4982 38.08 89.5916 38.64C88.6849 39.1733 87.7916 39.44 86.9116 39.44C85.8449 39.44 84.9382 39.16 84.1916 38.6C83.4716 38.04 82.9116 37.3067 82.5116 36.4C82.1382 35.4667 81.9116 34.44 81.8316 33.32C81.7782 32.2 81.8849 31.08 82.1516 29.96L82.3916 29.08C82.9249 26.9733 83.5649 25.1733 84.3116 23.68C85.0582 22.16 85.8849 20.92 86.7916 19.96C87.6982 19 88.6716 18.3067 89.7116 17.88C90.7516 17.4267 91.8316 17.2 92.9516 17.2ZM98.3516 17.6C98.5916 17.52 98.8182 17.4667 99.0316 17.44C99.2716 17.3867 99.5382 17.36 99.8316 17.36C100.498 17.36 101.045 17.5333 101.472 17.88C101.898 18.2267 102.152 18.8 102.232 19.6C102.338 20.3733 102.245 21.44 101.952 22.8C101.658 24.24 101.285 25.64 100.832 27C100.405 28.3333 99.9782 29.64 99.5516 30.92C99.1249 32.1733 98.7916 33.48 98.5516 34.84C98.6849 35 98.8316 35.1067 98.9916 35.16C99.1516 35.2133 99.3516 35.24 99.5916 35.24C100.018 35.24 100.485 35.0533 100.992 34.68C101.525 34.3067 101.978 33.8267 102.352 33.24H102.592C102.592 33.48 102.565 33.7333 102.512 34C102.458 34.2667 102.378 34.5733 102.272 34.92C102.138 35.56 101.938 36.16 101.672 36.72C101.432 37.2533 101.152 37.6933 100.832 38.04C100.405 38.4667 99.9516 38.7867 99.4716 39C99.0182 39.24 98.4716 39.36 97.8316 39.36C97.0582 39.36 96.3916 39.12 95.8316 38.64C95.2982 38.16 94.9116 37.4933 94.6716 36.64C94.4582 35.76 94.4582 34.7467 94.6716 33.6C94.9116 32.24 95.2182 30.9333 95.5916 29.68C95.9916 28.4 96.4049 27.1067 96.8316 25.8C97.2582 24.4667 97.6182 23.0267 97.9116 21.48C98.0182 20.9467 98.0982 20.4533 98.1516 20C98.2316 19.5467 98.2849 19.12 98.3116 18.72C98.3382 18.2933 98.3516 17.92 98.3516 17.6ZM112.256 12.8C112.389 12.1333 112.456 11.4533 112.456 10.76C112.483 10.0667 112.389 9.48 112.176 9C112.256 8.94666 112.349 8.90667 112.456 8.88C112.589 8.85333 112.709 8.82667 112.816 8.8C112.923 8.77333 113.029 8.76 113.136 8.76C113.269 8.73333 113.389 8.72 113.496 8.72C113.629 8.72 113.763 8.72 113.896 8.72C114.589 8.72 115.189 8.89333 115.696 9.24C116.203 9.56 116.536 10.12 116.696 10.92C116.883 11.6933 116.816 12.76 116.496 14.12C116.203 15.3733 115.869 16.5733 115.496 17.72C115.123 18.8667 114.709 20.0133 114.256 21.16C113.803 22.28 113.349 23.4 112.896 24.52C112.469 25.6133 112.056 26.7467 111.656 27.92C111.283 29.0667 110.963 30.2533 110.696 31.48C110.536 32.2 110.429 32.8667 110.376 33.48C110.323 34.0667 110.323 34.6667 110.376 35.28C110.563 35.3867 110.763 35.4667 110.976 35.52C111.189 35.5467 111.429 35.56 111.696 35.56C111.963 35.56 112.216 35.5467 112.456 35.52C112.723 35.4667 112.976 35.3867 113.216 35.28C113.483 35.1733 113.723 35.0267 113.936 34.84C114.176 34.6533 114.416 34.44 114.656 34.2H114.896C114.923 34.52 114.923 34.88 114.896 35.28C114.869 35.6533 114.789 36.12 114.656 36.68C114.549 37.1067 114.416 37.4667 114.256 37.76C114.096 38.0267 113.883 38.2933 113.616 38.56C113.483 38.6933 113.323 38.8267 113.136 38.96C112.949 39.0667 112.723 39.16 112.456 39.24C112.216 39.32 111.936 39.3867 111.616 39.44C111.323 39.4933 111.003 39.52 110.656 39.52C109.616 39.52 108.763 39.3067 108.096 38.88C107.429 38.4533 106.936 37.88 106.616 37.16C106.296 36.4133 106.109 35.56 106.056 34.6C106.029 33.64 106.123 32.6133 106.336 31.52C106.629 29.76 107.029 28.1067 107.536 26.56C108.043 25.0133 108.576 23.52 109.136 22.08C109.723 20.6133 110.283 19.1333 110.816 17.64C111.376 16.12 111.856 14.5067 112.256 12.8ZM130.53 17.2C131.356 17.2 132.076 17.3733 132.69 17.72C133.303 18.04 133.836 18.48 134.29 19.04C134.743 19.5733 135.116 20.1733 135.41 20.84H136.29L135.49 24.08C135.036 23.12 134.45 22.4 133.73 21.92C133.01 21.4133 132.103 21.16 131.01 21.16C130.023 21.16 129.103 21.4533 128.25 22.04C127.423 22.6267 126.676 23.5067 126.01 24.68C125.37 25.8267 124.823 27.2533 124.37 28.96L124.17 29.64C123.956 30.4933 123.796 31.3067 123.69 32.08C123.583 32.8267 123.556 33.5467 123.61 34.24C123.85 34.5067 124.116 34.72 124.41 34.88C124.73 35.0133 125.09 35.08 125.49 35.08C126.476 35.08 127.45 34.8133 128.41 34.28C129.37 33.7467 130.356 32.88 131.37 31.68C132.41 30.4533 133.543 28.84 134.77 26.84L133.01 33.24H132.05C131.356 34.4133 130.596 35.4667 129.77 36.4C128.943 37.3333 128.076 38.08 127.17 38.64C126.263 39.1733 125.37 39.44 124.49 39.44C123.423 39.44 122.516 39.16 121.77 38.6C121.05 38.04 120.49 37.3067 120.09 36.4C119.716 35.4667 119.49 34.44 119.41 33.32C119.356 32.2 119.463 31.08 119.73 29.96L119.97 29.08C120.503 26.9733 121.143 25.1733 121.89 23.68C122.636 22.16 123.463 20.92 124.37 19.96C125.276 19 126.25 18.3067 127.29 17.88C128.33 17.4267 129.41 17.2 130.53 17.2ZM135.93 17.6C136.17 17.52 136.396 17.4667 136.61 17.44C136.85 17.3867 137.116 17.36 137.41 17.36C138.076 17.36 138.623 17.5333 139.05 17.88C139.476 18.2267 139.73 18.8 139.81 19.6C139.916 20.3733 139.823 21.44 139.53 22.8C139.236 24.24 138.863 25.64 138.41 27C137.983 28.3333 137.556 29.64 137.13 30.92C136.703 32.1733 136.37 33.48 136.13 34.84C136.263 35 136.41 35.1067 136.57 35.16C136.73 35.2133 136.93 35.24 137.17 35.24C137.596 35.24 138.063 35.0533 138.57 34.68C139.103 34.3067 139.556 33.8267 139.93 33.24H140.17C140.17 33.48 140.143 33.7333 140.09 34C140.036 34.2667 139.956 34.5733 139.85 34.92C139.716 35.56 139.516 36.16 139.25 36.72C139.01 37.2533 138.73 37.6933 138.41 38.04C137.983 38.4667 137.53 38.7867 137.05 39C136.596 39.24 136.05 39.36 135.41 39.36C134.636 39.36 133.97 39.12 133.41 38.64C132.876 38.16 132.49 37.4933 132.25 36.64C132.036 35.76 132.036 34.7467 132.25 33.6C132.49 32.24 132.796 30.9333 133.17 29.68C133.57 28.4 133.983 27.1067 134.41 25.8C134.836 24.4667 135.196 23.0267 135.49 21.48C135.596 20.9467 135.676 20.4533 135.73 20C135.81 19.5467 135.863 19.12 135.89 18.72C135.916 18.2933 135.93 17.92 135.93 17.6ZM146.474 18.24C147.087 18 147.674 17.8133 148.234 17.68C148.794 17.52 149.327 17.4133 149.834 17.36C150.341 17.28 150.807 17.24 151.234 17.24C151.847 17.24 152.421 17.3867 152.954 17.68C153.487 17.9733 153.927 18.3733 154.274 18.88C154.647 19.3867 154.847 19.9867 154.874 20.68C154.874 21.88 154.914 23.0533 154.994 24.2C155.074 25.3467 155.167 26.44 155.274 27.48C155.407 28.4933 155.554 29.4267 155.714 30.28C155.901 31.1333 156.114 31.8933 156.354 32.56C156.567 33.2267 156.767 33.7467 156.954 34.12C157.141 34.4667 157.381 34.8 157.674 35.12C158.287 35.04 158.861 34.92 159.394 34.76C159.927 34.6 160.447 34.3867 160.954 34.12C161.487 33.8267 162.007 33.4533 162.514 33H162.754C162.754 33.16 162.754 33.32 162.754 33.48C162.754 33.64 162.741 33.8 162.714 33.96C162.714 34.12 162.701 34.28 162.674 34.44C162.647 34.5733 162.607 34.72 162.554 34.88C162.527 35.04 162.501 35.1867 162.474 35.32C162.314 35.9333 162.114 36.4933 161.874 37C161.634 37.48 161.314 37.92 160.914 38.32C160.674 38.5333 160.394 38.72 160.074 38.88C159.781 39.04 159.434 39.16 159.034 39.24C158.661 39.3467 158.261 39.4 157.834 39.4C157.221 39.4 156.634 39.24 156.074 38.92C155.541 38.6 155.047 38.1467 154.594 37.56C154.167 36.9467 153.807 36.24 153.514 35.44C153.141 34.4 152.807 33.28 152.514 32.08C152.247 30.88 152.021 29.6533 151.834 28.4C151.647 27.12 151.501 25.8533 151.394 24.6C151.287 23.3467 151.207 22.1467 151.154 21L150.914 20.92C150.194 21.3467 149.594 21.7333 149.114 22.08C148.634 22.4267 148.221 22.6933 147.874 22.88C147.527 23.0667 147.207 23.16 146.914 23.16C146.354 23.16 145.967 22.8933 145.754 22.36C145.567 21.8267 145.581 21.0667 145.794 20.08C145.847 19.8667 145.901 19.6667 145.954 19.48C146.034 19.2933 146.114 19.0933 146.194 18.88C146.274 18.6667 146.367 18.4533 146.474 18.24ZM153.354 31L152.034 30.88C151.447 32.2133 150.874 33.3733 150.314 34.36C149.781 35.32 149.261 36.1333 148.754 36.8C148.247 37.4667 147.741 38.0133 147.234 38.44C146.727 38.84 146.194 39.1333 145.634 39.32C145.101 39.5067 144.541 39.6 143.954 39.6C143.074 39.6 142.474 39.2933 142.154 38.68C141.834 38.0667 141.741 37.3333 141.874 36.48C141.954 36.1333 142.034 35.8133 142.114 35.52C142.194 35.2267 142.287 34.96 142.394 34.72C142.527 34.4533 142.661 34.2 142.794 33.96H143.034C143.167 34.0933 143.327 34.1867 143.514 34.24C143.701 34.2667 143.914 34.28 144.154 34.28C144.421 34.28 144.701 34.24 144.994 34.16C145.287 34.08 145.594 33.9733 145.914 33.84C146.341 33.6533 146.767 33.4267 147.194 33.16C147.621 32.8667 148.087 32.4933 148.594 32.04C149.101 31.56 149.674 30.9733 150.314 30.28C150.954 29.56 151.687 28.6667 152.514 27.6L153.354 31ZM154.114 26.48L155.434 26.56C156.021 25.3067 156.581 24.1867 157.114 23.2C157.674 22.1867 158.221 21.3067 158.754 20.56C159.314 19.8133 159.861 19.2 160.394 18.72C160.954 18.2133 161.514 17.84 162.074 17.6C162.661 17.36 163.274 17.24 163.914 17.24C164.794 17.24 165.367 17.56 165.634 18.2C165.927 18.8133 165.981 19.5333 165.794 20.36C165.714 20.7067 165.621 21.0133 165.514 21.28C165.434 21.5467 165.341 21.8 165.234 22.04C165.127 22.2533 164.994 22.48 164.834 22.72H164.594C164.407 22.6133 164.207 22.5333 163.994 22.48C163.807 22.4267 163.567 22.4 163.274 22.4C163.007 22.4 162.727 22.4267 162.434 22.48C162.167 22.5333 161.861 22.6533 161.514 22.84C161.114 23.0267 160.701 23.28 160.274 23.6C159.847 23.8933 159.394 24.3067 158.914 24.84C158.434 25.3467 157.874 26.0133 157.234 26.84C156.594 27.6667 155.834 28.7067 154.954 29.96L154.114 26.48ZM171.018 17.64C171.152 17.5867 171.285 17.5467 171.418 17.52C171.578 17.4933 171.738 17.48 171.898 17.48C172.058 17.4533 172.218 17.44 172.378 17.44C172.565 17.4133 172.765 17.4 172.978 17.4C173.565 17.4 174.045 17.5067 174.418 17.72C174.818 17.9333 175.112 18.2667 175.298 18.72C175.512 19.1733 175.605 19.7333 175.578 20.4C175.578 21.04 175.472 21.8 175.258 22.68C174.805 24.7067 174.298 26.6267 173.738 28.44C173.178 30.2533 172.685 32.0267 172.258 33.76C171.858 35.4933 171.672 37.2533 171.698 39.04C171.618 39.0667 171.512 39.08 171.378 39.08C171.272 39.1067 171.152 39.1333 171.018 39.16C170.912 39.1867 170.778 39.2 170.618 39.2C170.485 39.2267 170.338 39.24 170.178 39.24C169.485 39.24 168.925 39.1067 168.498 38.84C168.098 38.5733 167.792 38.24 167.578 37.84C167.392 37.44 167.272 37.0133 167.218 36.56C167.192 36.1067 167.205 35.68 167.258 35.28C167.472 33.8133 167.805 32.32 168.258 30.8C168.712 29.28 169.178 27.7467 169.658 26.2C170.165 24.6267 170.552 23.0533 170.818 21.48C170.952 20.68 171.045 19.9733 171.098 19.36C171.152 18.72 171.125 18.1467 171.018 17.64ZM183.178 17.24C183.792 17.24 184.338 17.4 184.818 17.72C185.298 18.04 185.698 18.4933 186.018 19.08C186.338 19.64 186.538 20.2933 186.618 21.04C186.725 21.7867 186.685 22.5867 186.498 23.44C186.152 24.9867 185.778 26.4667 185.378 27.88C184.978 29.2933 184.605 30.64 184.258 31.92C183.912 33.2 183.618 34.4267 183.378 35.6C183.165 36.7733 183.085 37.9067 183.138 39C182.952 39.0267 182.752 39.0533 182.538 39.08C182.325 39.1067 182.112 39.12 181.898 39.12C181.685 39.1467 181.432 39.16 181.138 39.16C180.392 39.16 179.805 39.0267 179.378 38.76C178.952 38.4667 178.712 37.9867 178.658 37.32C178.605 36.6267 178.712 35.68 178.978 34.48C179.138 33.7867 179.325 33.0533 179.538 32.28C179.778 31.5067 180.058 30.6667 180.378 29.76C180.698 28.8533 181.045 27.88 181.418 26.84C181.818 25.7733 182.232 24.6267 182.658 23.4C182.632 22.9733 182.525 22.64 182.338 22.4C182.178 22.1333 181.965 21.9467 181.698 21.84C181.458 21.7333 181.165 21.68 180.818 21.68C180.152 21.68 179.418 21.92 178.618 22.4C177.818 22.8533 176.965 23.6267 176.058 24.72C175.178 25.8133 174.232 27.32 173.218 29.24L174.978 22.2L175.658 22.4C176.352 21.4133 177.098 20.5333 177.898 19.76C178.725 18.9867 179.578 18.3733 180.458 17.92C181.338 17.4667 182.245 17.24 183.178 17.24ZM194.578 17.2C195.325 17.2 195.952 17.4 196.458 17.8C196.992 18.2 197.405 18.7067 197.698 19.32C198.018 19.9333 198.218 20.6 198.298 21.32C198.405 22.0133 198.392 22.6667 198.258 23.28C197.992 24.5067 197.658 25.68 197.258 26.8C196.885 27.92 196.512 29.0267 196.138 30.12C195.792 31.1867 195.498 32.3067 195.258 33.48C195.178 33.8 195.125 34.1067 195.098 34.4C195.098 34.6933 195.098 34.96 195.098 35.2C195.178 35.2267 195.258 35.2533 195.338 35.28C195.445 35.28 195.538 35.28 195.618 35.28C195.885 35.28 196.165 35.1733 196.458 34.96C196.778 34.7467 197.045 34.4667 197.258 34.12H197.498C197.472 34.3333 197.445 34.56 197.418 34.8C197.418 35.0133 197.392 35.2533 197.338 35.52C197.232 36.16 197.058 36.76 196.818 37.32C196.578 37.8533 196.285 38.2933 195.938 38.64C195.698 38.88 195.418 39.0533 195.098 39.16C194.805 39.2933 194.458 39.36 194.058 39.36C193.285 39.36 192.605 39.1333 192.018 38.68C191.432 38.2267 191.018 37.5733 190.778 36.72C190.538 35.8667 190.512 34.8667 190.698 33.72C190.832 33.0267 191.005 32.3067 191.218 31.56C191.458 30.7867 191.725 30 192.018 29.2C192.338 28.3733 192.672 27.4933 193.018 26.56C193.392 25.6267 193.792 24.6267 194.218 23.56C194.165 22.9467 194.005 22.4667 193.738 22.12C193.472 21.7733 193.018 21.6 192.378 21.6C191.658 21.6 190.872 21.9067 190.018 22.52C189.165 23.1333 188.285 24.0133 187.378 25.16C186.498 26.3067 185.592 27.7067 184.658 29.36L186.458 21.96L186.978 22.12C187.778 21.0267 188.592 20.12 189.418 19.4C190.272 18.6533 191.138 18.1067 192.018 17.76C192.898 17.3867 193.752 17.2 194.578 17.2ZM204.003 17.68C204.509 17.5733 205.016 17.4933 205.523 17.44C206.029 17.3867 206.523 17.3467 207.003 17.32C207.483 17.2667 207.936 17.24 208.363 17.24C208.896 17.24 209.389 17.4 209.843 17.72C210.296 18.04 210.656 18.4667 210.923 19C211.189 19.5333 211.269 20.0933 211.163 20.68C211.003 21.6933 210.776 22.68 210.483 23.64C210.216 24.6 209.909 25.5333 209.563 26.44C209.243 27.3467 208.936 28.2533 208.643 29.16C208.349 30.04 208.096 30.92 207.883 31.8C207.723 32.6533 207.616 33.3067 207.563 33.76C207.536 34.2133 207.536 34.6133 207.563 34.96C207.723 35.0933 207.909 35.2 208.123 35.28C208.336 35.3333 208.563 35.36 208.803 35.36C209.283 35.36 209.696 35.2667 210.043 35.08C210.416 34.8667 210.789 34.56 211.163 34.16H211.403C211.456 34.5333 211.469 34.9333 211.443 35.36C211.416 35.7867 211.363 36.2267 211.283 36.68C211.203 37.0533 211.069 37.4 210.883 37.72C210.723 38.0133 210.523 38.2933 210.283 38.56C210.069 38.7733 209.816 38.9467 209.523 39.08C209.229 39.2133 208.896 39.32 208.523 39.4C208.176 39.48 207.776 39.52 207.323 39.52C206.709 39.52 206.136 39.3867 205.603 39.12C205.096 38.88 204.656 38.5067 204.283 38C203.909 37.4933 203.643 36.8533 203.483 36.08C203.349 35.3067 203.349 34.4 203.483 33.36C203.643 32.2133 203.856 31.1467 204.123 30.16C204.416 29.1467 204.723 28.1733 205.043 27.24C205.389 26.3067 205.709 25.3867 206.003 24.48C206.296 23.5467 206.549 22.5867 206.763 21.6L206.563 21.44C206.269 21.5467 205.976 21.6533 205.683 21.76C205.389 21.8667 205.109 21.96 204.843 22.04C204.603 22.0933 204.363 22.12 204.123 22.12C203.749 22.12 203.469 21.8933 203.283 21.44C203.096 20.96 203.123 20.24 203.363 19.28C203.443 19.0133 203.523 18.7467 203.603 18.48C203.709 18.2133 203.843 17.9467 204.003 17.68ZM209.003 8.68C209.189 8.62667 209.389 8.58666 209.603 8.56C209.816 8.53333 210.029 8.52 210.243 8.52C210.483 8.49333 210.709 8.48 210.923 8.48C211.136 8.48 211.336 8.48 211.523 8.48C212.696 8.48 213.509 8.77333 213.963 9.36C214.416 9.94666 214.509 10.7733 214.243 11.84L213.883 13.44C213.669 13.4667 213.456 13.4933 213.243 13.52C213.029 13.5467 212.816 13.5733 212.603 13.6C212.389 13.6 212.176 13.6 211.963 13.6C211.749 13.6 211.536 13.6 211.323 13.6C210.096 13.6 209.256 13.3333 208.803 12.8C208.349 12.24 208.283 11.36 208.603 10.16L209.003 8.68ZM6.84 74C6.57333 74.1067 6.29333 74.1867 6 74.24C5.73333 74.2933 5.45333 74.32 5.16 74.32C4.36 74.32 3.73333 74.1467 3.28 73.8C2.85333 73.4267 2.57333 72.92 2.44 72.28C2.33333 71.6133 2.32 70.84 2.4 69.96C2.61333 68.28 2.97333 66.6267 3.48 65C3.98667 63.3733 4.56 61.7333 5.2 60.08C5.84 58.4267 6.42667 56.7067 6.96 54.92C7.52 53.1067 7.93333 51.1867 8.2 49.16L11.76 48.96L11.04 50.32C11.3067 50.6667 11.4933 51.12 11.6 51.68C11.7067 52.2133 11.68 52.9067 11.52 53.76C11.2 55.5733 10.7067 57.3867 10.04 59.2C9.4 61.0133 8.76 62.84 8.12 64.68C7.50667 66.4933 7.06667 68.3333 6.8 70.2C6.72 70.8667 6.68 71.5333 6.68 72.2C6.68 72.8667 6.73333 73.4667 6.84 74ZM6.08 46H22.44C22.9733 46 23.3733 46.12 23.64 46.36C23.9333 46.5733 24.12 46.88 24.2 47.28C24.3067 47.6533 24.2933 48.0933 24.16 48.6C24.1067 48.7867 24.04 48.9733 23.96 49.16C23.88 49.3467 23.8 49.52 23.72 49.68C23.6667 49.84 23.5867 49.9867 23.48 50.12H7.04C6.56 50.12 6.17333 50 5.88 49.76C5.61333 49.4933 5.44 49.16 5.36 48.76C5.30667 48.3333 5.33333 47.8667 5.44 47.36C5.54667 47.04 5.65333 46.7867 5.76 46.6C5.86667 46.3867 5.97333 46.1867 6.08 46ZM7.68 60.88H16.52C17.48 60.88 18.08 61.16 18.32 61.72C18.5867 62.28 18.64 62.9067 18.48 63.6C18.4533 63.76 18.4133 63.9333 18.36 64.12C18.3067 64.28 18.24 64.4533 18.16 64.64C18.1067 64.8 18.04 64.92 17.96 65H6.36L7.68 60.88ZM35.2213 52.2C36.6079 52.2 37.8079 52.5333 38.8213 53.2C39.8613 53.8667 40.7013 54.7867 41.3412 55.96C41.9813 57.1067 42.3813 58.44 42.5413 59.96C42.7013 61.4533 42.5813 63.04 42.1813 64.72L42.0213 65.36C41.5413 67.3867 40.8079 69.08 39.8213 70.44C38.8613 71.7733 37.6479 72.7733 36.1813 73.44C34.7146 74.1067 32.9679 74.44 30.9413 74.44C29.3679 74.44 27.9946 74.1733 26.8213 73.64C25.6479 73.08 24.7146 72.32 24.0213 71.36C23.3279 70.3733 22.8879 69.24 22.7013 67.96C22.5146 66.6533 22.6213 65.2533 23.0213 63.76L23.1813 63.12C23.7679 60.8533 24.6346 58.9067 25.7812 57.28C26.9279 55.6533 28.3146 54.4 29.9413 53.52C31.5679 52.64 33.3279 52.2 35.2213 52.2ZM35.1013 56.2C34.0346 56.2 33.0079 56.5067 32.0213 57.12C31.0346 57.7067 30.1413 58.5867 29.3413 59.76C28.5679 60.9067 27.9413 62.3467 27.4613 64.08L27.3413 64.56C27.0213 65.76 26.9013 66.8667 26.9813 67.88C27.0613 68.8933 27.4079 69.7333 28.0213 70.4C28.4746 70.56 28.9146 70.68 29.3413 70.76C29.7946 70.84 30.2613 70.88 30.7413 70.88C32.1013 70.88 33.2746 70.6533 34.2613 70.2C35.2746 69.72 36.1146 69.04 36.7813 68.16C37.4479 67.28 37.9413 66.2133 38.2613 64.96L38.3813 64.48C38.7813 62.8267 38.9413 61.3467 38.8613 60.04C38.8079 58.7067 38.5146 57.6 37.9813 56.72C37.6079 56.5333 37.1813 56.4 36.7013 56.32C36.2479 56.24 35.7146 56.2 35.1013 56.2ZM49.7256 52.68C49.9656 52.5733 50.259 52.4933 50.6056 52.44C50.979 52.3867 51.3523 52.36 51.7256 52.36C52.6056 52.36 53.2723 52.5867 53.7256 53.04C54.2056 53.4933 54.499 54.16 54.6056 55.04C54.7123 55.92 54.6323 56.9867 54.3656 58.24C54.179 59.2 53.899 60.1867 53.5256 61.2C53.179 62.2133 52.7523 63.2933 52.2456 64.44C51.739 65.5867 51.1523 66.84 50.4856 68.2C50.5923 68.76 50.8056 69.1867 51.1256 69.48C51.4723 69.7733 51.9256 69.92 52.4856 69.92C53.179 69.92 53.9123 69.6933 54.6856 69.24C55.4856 68.76 56.2856 68.1067 57.0856 67.28C57.9123 66.4533 58.7123 65.4933 59.4856 64.4C60.2856 63.28 61.0456 62.0667 61.7656 60.76L60.1656 67.6H59.2056C58.4856 68.8267 57.6456 69.96 56.6856 71C55.7523 72.04 54.7656 72.8667 53.7256 73.48C52.6856 74.0933 51.659 74.4 50.6456 74.4C49.819 74.4 49.1123 74.2 48.5256 73.8C47.9656 73.3733 47.5123 72.8267 47.1656 72.16C46.819 71.4933 46.5923 70.7867 46.4856 70.04C46.4056 69.2667 46.4456 68.5333 46.6056 67.84C46.8456 66.7733 47.139 65.7333 47.4856 64.72C47.859 63.68 48.219 62.64 48.5656 61.6C48.939 60.5333 49.2456 59.44 49.4856 58.32C49.7256 57.2533 49.8723 56.2667 49.9256 55.36C49.979 54.4533 49.9123 53.56 49.7256 52.68ZM63.0056 52.48C63.0856 52.4533 63.1656 52.44 63.2456 52.44C63.3256 52.4133 63.4056 52.4 63.4856 52.4C63.5656 52.3733 63.6456 52.36 63.7256 52.36C64.7123 52.36 65.459 52.52 65.9656 52.84C66.4723 53.16 66.8056 53.5867 66.9656 54.12C67.1523 54.6267 67.2056 55.1867 67.1256 55.8C66.9923 56.9467 66.7123 58.16 66.2856 59.44C65.859 60.72 65.4056 62.0133 64.9256 63.32C64.4723 64.6 64.0856 65.8533 63.7656 67.08C63.6323 67.6667 63.5123 68.2 63.4056 68.68C63.3256 69.16 63.2856 69.6533 63.2856 70.16C63.3923 70.1867 63.499 70.2133 63.6056 70.24C63.7123 70.24 63.8323 70.24 63.9656 70.24C64.2856 70.24 64.6056 70.16 64.9256 70C65.2723 69.8133 65.6056 69.56 65.9256 69.24C66.2723 68.92 66.5523 68.5867 66.7656 68.24H67.0056C66.979 68.56 66.939 68.8667 66.8856 69.16C66.859 69.4533 66.7923 69.7867 66.6856 70.16C66.5256 70.8 66.3523 71.3333 66.1656 71.76C65.979 72.1867 65.7656 72.5733 65.5256 72.92C65.3123 73.24 65.0323 73.5067 64.6856 73.72C64.3656 73.9333 63.9923 74.0933 63.5656 74.2C63.1656 74.3067 62.739 74.36 62.2856 74.36C61.7256 74.36 61.219 74.2133 60.7656 73.92C60.339 73.6267 59.979 73.2133 59.6856 72.68C59.419 72.12 59.259 71.4667 59.2056 70.72C59.1523 69.9467 59.2056 69.0933 59.3656 68.16C59.6323 66.6933 59.9656 65.2933 60.3656 63.96C60.7923 62.6 61.2056 61.2933 61.6056 60.04C62.0323 58.76 62.379 57.5067 62.6456 56.28C62.9123 55.0267 63.0323 53.76 63.0056 52.48ZM73.87 52.64C74.0033 52.6133 74.1367 52.5867 74.27 52.56C74.4033 52.5067 74.55 52.48 74.71 52.48C74.87 52.4533 75.03 52.44 75.19 52.44C76.0967 52.44 76.79 52.6267 77.27 53C77.7767 53.3733 78.07 53.9467 78.15 54.72C78.2567 55.4933 78.1633 56.48 77.87 57.68C77.55 59.2267 77.1767 60.7067 76.75 62.12C76.3233 63.5067 75.8967 64.8667 75.47 66.2C75.07 67.5067 74.7367 68.8267 74.47 70.16C74.2033 71.4667 74.0833 72.7867 74.11 74.12C74.03 74.1467 73.95 74.16 73.87 74.16C73.8167 74.1867 73.75 74.2 73.67 74.2C73.59 74.2267 73.4967 74.24 73.39 74.24C72.67 74.24 72.0833 74.1067 71.63 73.84C71.1767 73.5733 70.83 73.24 70.59 72.84C70.35 72.44 70.19 72.0133 70.11 71.56C70.0567 71.1067 70.0567 70.68 70.11 70.28C70.3233 68.8133 70.6567 67.3067 71.11 65.76C71.59 64.1867 72.0833 62.6133 72.59 61.04C73.1233 59.4667 73.51 57.9467 73.75 56.48C73.8833 55.68 73.9633 54.9733 73.99 54.36C74.0167 53.7467 73.9767 53.1733 73.87 52.64ZM86.51 52.24C87.3367 52.24 88.03 52.4533 88.59 52.88C89.1767 53.28 89.63 53.8133 89.95 54.48C90.2967 55.1467 90.5233 55.8667 90.63 56.64C90.7367 57.3867 90.71 58.1067 90.55 58.8C90.31 59.8933 90.0033 60.9467 89.63 61.96C89.2567 62.9733 88.8833 64 88.51 65.04C88.1633 66.0533 87.8567 67.12 87.59 68.24C87.5367 68.5867 87.4833 68.9333 87.43 69.28C87.4033 69.6 87.39 69.8933 87.39 70.16C87.4967 70.1867 87.6033 70.2133 87.71 70.24C87.8167 70.2667 87.9233 70.28 88.03 70.28C88.2967 70.28 88.6033 70.1867 88.95 70C89.2967 69.8133 89.63 69.56 89.95 69.24C90.27 68.92 90.5367 68.5867 90.75 68.24H90.99C90.99 68.5067 90.9633 68.7867 90.91 69.08C90.8833 69.3733 90.8033 69.7333 90.67 70.16C90.51 70.8 90.3233 71.3467 90.11 71.8C89.8967 72.2533 89.67 72.64 89.43 72.96C89.0833 73.4133 88.6567 73.76 88.15 74C87.67 74.24 87.0433 74.36 86.27 74.36C85.6033 74.36 84.9633 74.1067 84.35 73.6C83.7633 73.0933 83.3233 72.4133 83.03 71.56C82.7367 70.7067 82.6833 69.76 82.87 68.72C83.0567 67.68 83.3367 66.64 83.71 65.6C84.11 64.56 84.5633 63.4667 85.07 62.32C85.6033 61.1467 86.19 59.8933 86.83 58.56C86.6967 57.92 86.4567 57.4533 86.11 57.16C85.7633 56.8667 85.2833 56.72 84.67 56.72C83.9767 56.72 83.23 56.96 82.43 57.44C81.6567 57.8933 80.8567 58.5467 80.03 59.4C79.23 60.2267 78.43 61.2 77.63 62.32C76.83 63.4133 76.07 64.6133 75.35 65.92L76.95 59.28H77.83C78.55 58 79.39 56.8267 80.35 55.76C81.3367 54.6933 82.35 53.84 83.39 53.2C84.4567 52.56 85.4967 52.24 86.51 52.24ZM105.374 52.2C106.254 52.2 107.028 52.3733 107.694 52.72C108.388 53.04 108.988 53.4667 109.494 54C110.001 54.5067 110.401 55.0133 110.694 55.52H111.854L110.694 58.72C110.241 57.8667 109.641 57.2267 108.894 56.8C108.148 56.3733 107.268 56.16 106.254 56.16C105.081 56.16 104.054 56.4533 103.174 57.04C102.294 57.6267 101.521 58.5067 100.854 59.68C100.188 60.8533 99.601 62.3333 99.0944 64.12L98.8944 64.8C98.7077 65.4933 98.561 66.2133 98.4544 66.96C98.3477 67.68 98.321 68.36 98.3744 69C98.6677 69.3467 99.001 69.6133 99.3744 69.8C99.7477 69.9867 100.174 70.08 100.654 70.08C101.614 70.08 102.534 69.8267 103.414 69.32C104.321 68.7867 105.254 67.92 106.214 66.72C107.201 65.52 108.294 63.9467 109.494 62L108.134 68.36H106.894C106.201 69.5067 105.441 70.5467 104.614 71.48C103.814 72.3867 102.961 73.1067 102.054 73.64C101.148 74.1733 100.214 74.44 99.2544 74.44C98.241 74.44 97.361 74.1867 96.6144 73.68C95.8944 73.1733 95.321 72.48 94.8944 71.6C94.4677 70.72 94.2144 69.72 94.1344 68.6C94.081 67.48 94.201 66.3067 94.4944 65.08L94.7344 64.2C95.2944 61.96 95.9477 60.08 96.6944 58.56C97.441 57.04 98.2544 55.8133 99.1344 54.88C100.041 53.9467 101.014 53.2667 102.054 52.84C103.094 52.4133 104.201 52.2 105.374 52.2ZM113.014 44C113.308 43.8667 113.588 43.7867 113.854 43.76C114.148 43.7333 114.454 43.72 114.774 43.72C115.441 43.72 116.001 43.8933 116.454 44.24C116.934 44.56 117.254 45.12 117.414 45.92C117.574 46.6933 117.494 47.76 117.174 49.12C116.828 50.8533 116.401 52.52 115.894 54.12C115.388 55.6933 114.854 57.24 114.294 58.76C113.734 60.28 113.214 61.7867 112.734 63.28C112.281 64.7733 111.908 66.2933 111.614 67.84C111.534 68.2667 111.481 68.6667 111.454 69.04C111.454 69.3867 111.454 69.7333 111.454 70.08C111.561 70.16 111.654 70.2133 111.734 70.24C111.841 70.2667 111.934 70.28 112.014 70.28C112.334 70.28 112.654 70.1867 112.974 70C113.294 69.8133 113.614 69.56 113.934 69.24C114.254 68.92 114.521 68.5867 114.734 68.24H114.974C114.974 68.5067 114.948 68.7867 114.894 69.08C114.868 69.3733 114.788 69.7333 114.654 70.16C114.494 70.8 114.294 71.3467 114.054 71.8C113.814 72.2533 113.521 72.68 113.174 73.08C112.801 73.5333 112.374 73.8533 111.894 74.04C111.414 74.2533 110.868 74.36 110.254 74.36C109.694 74.36 109.188 74.2267 108.734 73.96C108.281 73.6667 107.908 73.2667 107.614 72.76C107.321 72.2267 107.134 71.6 107.054 70.88C106.974 70.16 107.001 69.36 107.134 68.48C107.534 66.5333 107.988 64.72 108.494 63.04C109.001 61.3333 109.534 59.6667 110.094 58.04C110.654 56.4133 111.188 54.7733 111.694 53.12C112.228 51.4667 112.681 49.6933 113.054 47.8C113.214 47.0267 113.294 46.3333 113.294 45.72C113.321 45.08 113.228 44.5067 113.014 44ZM124.719 58.68L125.839 59.04C126.639 57.44 127.439 56.12 128.239 55.08C129.039 54.0133 129.839 53.2267 130.639 52.72C131.439 52.2133 132.239 51.96 133.039 51.96C133.519 51.96 133.919 52.0133 134.239 52.12C134.585 52.2267 134.852 52.4 135.039 52.64C135.332 52.88 135.505 53.28 135.559 53.84C135.639 54.4 135.585 55.04 135.399 55.76C135.345 56 135.279 56.2267 135.199 56.44C135.145 56.6267 135.079 56.8133 134.999 57C134.919 57.16 134.839 57.3333 134.759 57.52C134.679 57.68 134.599 57.8133 134.519 57.92H134.279C133.959 57.6 133.599 57.3867 133.199 57.28C132.825 57.1733 132.372 57.12 131.839 57.12C130.985 57.12 130.105 57.4267 129.199 58.04C128.319 58.6267 127.385 59.5867 126.399 60.92C125.412 62.2267 124.319 63.9867 123.119 66.2L124.719 58.68ZM122.159 74.04C122.079 74.0667 121.972 74.0933 121.839 74.12C121.705 74.1467 121.559 74.1733 121.399 74.2C121.265 74.2267 121.119 74.24 120.959 74.24C120.265 74.24 119.705 74.1067 119.279 73.84C118.852 73.5733 118.545 73.24 118.359 72.84C118.172 72.44 118.065 72.0133 118.039 71.56C118.012 71.1067 118.025 70.68 118.079 70.28C118.212 69.3733 118.385 68.4667 118.599 67.56C118.839 66.6533 119.092 65.7333 119.359 64.8C119.652 63.8667 119.945 62.9333 120.239 62C120.559 61.04 120.839 60.1067 121.079 59.2C121.345 58.2667 121.559 57.36 121.719 56.48C121.852 55.68 121.932 54.9733 121.959 54.36C121.985 53.7467 121.945 53.1733 121.839 52.64C121.972 52.6133 122.105 52.5867 122.239 52.56C122.372 52.5067 122.519 52.48 122.679 52.48C122.839 52.4533 122.999 52.44 123.159 52.44C124.065 52.44 124.759 52.6267 125.239 53C125.745 53.3733 126.039 53.9467 126.119 54.72C126.225 55.4933 126.132 56.48 125.839 57.68C125.599 58.9067 125.305 60.0933 124.959 61.24C124.639 62.36 124.305 63.4667 123.959 64.56C123.639 65.6267 123.332 66.6933 123.039 67.76C122.745 68.8 122.519 69.84 122.359 70.88C122.199 71.92 122.132 72.9733 122.159 74.04ZM139.687 52.68C139.953 52.5733 140.247 52.4933 140.567 52.44C140.913 52.3867 141.273 52.36 141.647 52.36C142.473 52.36 143.113 52.5867 143.567 53.04C144.02 53.4933 144.3 54.1467 144.407 55C144.513 55.8267 144.447 56.84 144.207 58.04C143.993 59.1067 143.687 60.1333 143.287 61.12C142.913 62.08 142.473 63.08 141.967 64.12C141.487 65.16 140.94 66.32 140.327 67.6C140.54 68.0267 140.82 68.3467 141.167 68.56C141.54 68.7733 141.993 68.88 142.527 68.88C143.327 68.88 144.14 68.7467 144.967 68.48C145.793 68.2133 146.647 67.7733 147.527 67.16C148.407 66.52 149.3 65.68 150.207 64.64C151.14 63.6 152.073 62.32 153.007 60.8L151.367 67.2H150.247C149.5 68.2933 148.62 69.28 147.607 70.16C146.62 71.04 145.593 71.7467 144.527 72.28C143.46 72.7867 142.447 73.04 141.487 73.04C140.473 73.04 139.633 72.8267 138.967 72.4C138.327 71.9467 137.833 71.3733 137.487 70.68C137.167 69.9867 136.98 69.2533 136.927 68.48C136.873 67.68 136.913 66.9333 137.047 66.24C137.34 64.9067 137.727 63.6133 138.207 62.36C138.713 61.08 139.127 59.7333 139.447 58.32C139.687 57.2267 139.833 56.24 139.887 55.36C139.94 54.4533 139.873 53.56 139.687 52.68ZM153.127 52.56C153.42 52.5067 153.673 52.4667 153.887 52.44C154.1 52.4133 154.327 52.4 154.567 52.4C155.287 52.4 155.86 52.5467 156.287 52.84C156.713 53.1333 157.007 53.52 157.167 54C157.327 54.48 157.367 55.0133 157.287 55.6C156.993 57.8933 156.633 60.0667 156.207 62.12C155.78 64.1733 155.26 66.1467 154.647 68.04C154.033 69.9333 153.313 71.7867 152.487 73.6C151.66 75.4133 150.687 76.9467 149.567 78.2C148.447 79.4533 147.14 80.4 145.647 81.04C144.153 81.68 142.393 82 140.367 82C139.38 82 138.54 81.92 137.847 81.76C137.18 81.6 136.633 81.4 136.207 81.16C135.807 80.92 135.5 80.6667 135.287 80.4C135.073 80.08 134.94 79.6933 134.887 79.24C134.86 78.7867 134.913 78.28 135.047 77.72C135.127 77.48 135.207 77.2667 135.287 77.08C135.367 76.8933 135.46 76.7067 135.567 76.52H135.807C136.553 77 137.38 77.3467 138.287 77.56C139.22 77.8 140.393 77.92 141.807 77.92C142.58 77.92 143.287 77.84 143.927 77.68C144.567 77.5467 145.193 77.3333 145.807 77.04C146.207 76.5867 146.553 76.1067 146.847 75.6C147.167 75.0933 147.487 74.5467 147.807 73.96C148.127 73.3467 148.447 72.64 148.767 71.84C149.353 70.4533 149.887 68.9867 150.367 67.44C150.847 65.8933 151.273 64.3067 151.647 62.68C152.02 61.0267 152.327 59.36 152.567 57.68C152.833 55.9733 153.02 54.2667 153.127 52.56Z" fill="#CC4A00"/>
<path d="M6 2H189" stroke="#252525" stroke-width="4" stroke-linecap="round"/>
<path d="M6 85H124" stroke="black" stroke-width="4" stroke-linecap="round"/>
</svg>
